<svg width="43" height="43" viewBox="0 0 43 43" fill="none" xmlns="http://www.w3.org/2000/svg">
<g clip-path="url(#clip0_31_45)">
<path fill-rule="evenodd" clip-rule="evenodd" d="M12.6198 0.263868C9.11981 0.421785 6.08625 1.27748 3.63671 3.71668C1.17862 6.16869 0.333554 9.21426 0.175243 12.6778C0.0768332 14.8396 -0.498615 31.1714 1.17006 35.4544C2.29535 38.3438 4.51165 40.5655 7.42756 41.6944C8.78817 42.2236 10.3414 42.5819 12.6198 42.6865C31.6705 43.5486 38.7324 43.0793 41.7104 35.4544C42.2388 34.0971 42.6025 32.5453 42.703 30.2725C43.5737 11.1729 42.5619 7.03296 39.2416 3.71668C36.6081 1.08968 33.5103 -0.69858 12.6198 0.263868ZM12.7951 38.8452C10.7093 38.7513 9.5776 38.4038 8.82242 38.1114C6.92269 37.373 5.49576 35.952 4.76197 34.0634C3.49121 30.809 3.91267 15.3521 4.02606 12.851C4.1373 10.4011 4.63362 8.16213 6.3622 6.43357C8.50153 4.29952 11.2655 3.25365 30.0852 4.103C32.5412 4.21396 34.7854 4.70927 36.5182 6.43357C38.6576 8.5676 39.7187 11.3529 38.8544 30.1004C38.7603 32.181 38.4116 33.3101 38.1185 34.0634C36.1824 39.025 31.7282 39.7138 12.7951 38.8452ZM30.2928 10.0827C30.2928 11.4954 31.4416 12.6442 32.86 12.6442C34.2784 12.6442 35.4293 11.4954 35.4293 10.0827C35.4293 8.66997 34.2784 7.52222 32.86 7.52222C31.4416 7.52222 30.2928 8.66997 30.2928 10.0827ZM10.4547 21.4741C10.4547 27.5262 15.3731 32.433 21.4402 32.433C27.5074 32.433 32.4257 27.5262 32.4257 21.4741C32.4257 15.422 27.5074 10.5184 21.4402 10.5184C15.3731 10.5184 10.4547 15.422 10.4547 21.4741ZM14.3098 21.4741C14.3098 17.5475 17.5017 14.3617 21.4402 14.3617C25.3787 14.3617 28.5706 17.5475 28.5706 21.4741C28.5706 25.4029 25.3787 28.5897 21.4402 28.5897C17.5017 28.5897 14.3098 25.4029 14.3098 21.4741Z" fill="black"/>
</g>
<defs>
<clipPath id="clip0_31_45">
<rect width="43" height="43" fill="white"/>
</clipPath>
</defs>
</svg>
