<svg width="24" height="24" viewBox="0 0 24 24" fill="none" xmlns="http://www.w3.org/2000/svg">
<g clip-path="url(#clip0_31_7)">
<path fill-rule="evenodd" clip-rule="evenodd" d="M15.6016 9.16196C15.6016 7.17356 13.99 5.56196 12.0016 5.56196C10.0132 5.56196 8.40156 7.17356 8.40156 9.16196C8.40156 11.1504 10.0132 12.762 12.0016 12.762C13.99 12.762 15.6016 11.1504 15.6016 9.16196ZM20.4016 8.40024C20.4016 13.0394 16.6408 24.0002 12.0016 24.0002C7.36236 24.0002 3.60156 13.0394 3.60156 8.40024C3.60156 3.76104 7.36236 0.000244141 12.0016 0.000244141C16.6408 0.000244141 20.4016 3.76104 20.4016 8.40024ZM13.2016 9.16196C13.2016 9.82316 12.6628 10.362 12.0016 10.362C11.3404 10.362 10.8016 9.82316 10.8016 9.16196C10.8016 8.50076 11.3404 7.96196 12.0016 7.96196C12.6628 7.96196 13.2016 8.50076 13.2016 9.16196Z" fill="black"/>
</g>
<defs>
<clipPath id="clip0_31_7">
<rect width="24" height="24" fill="white"/>
</clipPath>
</defs>
</svg>
