<svg width="21" height="21" viewBox="0 0 21 21" fill="none" xmlns="http://www.w3.org/2000/svg">
<g clip-path="url(#clip0_82_41)">
<path fill-rule="evenodd" clip-rule="evenodd" d="M5.65355 9.08654C5.86776 9.08654 6.0732 9.00144 6.22467 8.84997C6.37614 8.6985 6.46124 8.49306 6.46124 8.27885C6.46124 8.06463 6.37614 7.85919 6.22467 7.70772C6.0732 7.55625 5.86776 7.47115 5.65355 7.47115C5.43933 7.47115 5.23389 7.55625 5.08242 7.70772C4.93095 7.85919 4.84585 8.06463 4.84585 8.27885C4.84585 8.49306 4.93095 8.6985 5.08242 8.84997C5.23389 9.00144 5.43933 9.08654 5.65355 9.08654ZM5.65355 10.7019C5.97175 10.7019 6.28684 10.6392 6.58082 10.5175C6.8748 10.3957 7.14192 10.2172 7.36692 9.99222C7.59192 9.76722 7.77041 9.5001 7.89218 9.20612C8.01395 8.91214 8.07662 8.59705 8.07662 8.27885C8.07662 7.96064 8.01395 7.64556 7.89218 7.35158C7.77041 7.05759 7.59192 6.79048 7.36692 6.56547C7.14192 6.34047 6.8748 6.16199 6.58082 6.04022C6.28684 5.91845 5.97175 5.85577 5.65355 5.85577C5.01091 5.85577 4.39459 6.11106 3.94017 6.56547C3.48576 7.01989 3.23047 7.63621 3.23047 8.27885C3.23047 8.92149 3.48576 9.53781 3.94017 9.99222C4.39459 10.4466 5.01091 10.7019 5.65355 10.7019Z" fill="white"/>
<path fill-rule="evenodd" clip-rule="evenodd" d="M5.69411 11.3077C5.37279 11.3077 5.06463 11.4353 4.83742 11.6625C4.61022 11.8898 4.48257 12.1979 4.48257 12.5192V13.7308C4.48257 13.945 4.39748 14.1504 4.246 14.3019C4.09453 14.4534 3.88909 14.5385 3.67488 14.5385C3.46067 14.5385 3.25523 14.4534 3.10376 14.3019C2.95228 14.1504 2.86719 13.945 2.86719 13.7308V12.5192C2.86719 11.7695 3.16502 11.0504 3.69517 10.5203C4.22532 9.99014 4.94436 9.69231 5.69411 9.69231C6.44386 9.69231 7.1629 9.99014 7.69305 10.5203C8.2232 11.0504 8.52103 11.7695 8.52103 12.5192V13.7308C8.52103 13.945 8.43594 14.1504 8.28447 14.3019C8.13299 14.4534 7.92756 14.5385 7.71334 14.5385C7.49913 14.5385 7.29369 14.4534 7.14222 14.3019C6.99075 14.1504 6.90565 13.945 6.90565 13.7308V12.5192C6.90565 12.1979 6.77801 11.8898 6.5508 11.6625C6.32359 11.4353 6.01543 11.3077 5.69411 11.3077ZM15.346 9.08654C15.1318 9.08654 14.9264 9.00144 14.7749 8.84997C14.6234 8.6985 14.5383 8.49306 14.5383 8.27885C14.5383 8.06463 14.6234 7.85919 14.7749 7.70772C14.9264 7.55625 15.1318 7.47115 15.346 7.47115C15.5602 7.47115 15.7657 7.55625 15.9172 7.70772C16.0686 7.85919 16.1537 8.06463 16.1537 8.27885C16.1537 8.49306 16.0686 8.6985 15.9172 8.84997C15.7657 9.00144 15.5602 9.08654 15.346 9.08654ZM15.346 10.7019C15.0278 10.7019 14.7127 10.6392 14.4188 10.5175C14.1248 10.3957 13.8577 10.2172 13.6327 9.99222C13.4077 9.76722 13.2292 9.5001 13.1074 9.20612C12.9856 8.91214 12.923 8.59705 12.923 8.27885C12.923 7.96064 12.9856 7.64556 13.1074 7.35158C13.2292 7.05759 13.4077 6.79048 13.6327 6.56547C13.8577 6.34047 14.1248 6.16199 14.4188 6.04022C14.7127 5.91845 15.0278 5.85577 15.346 5.85577C15.9887 5.85577 16.605 6.11106 17.0594 6.56547C17.5138 7.01989 17.7691 7.63621 17.7691 8.27885C17.7691 8.92149 17.5138 9.53781 17.0594 9.99222C16.605 10.4466 15.9887 10.7019 15.346 10.7019Z" fill="white"/>
<path fill-rule="evenodd" clip-rule="evenodd" d="M15.3054 11.3077C15.6268 11.3077 15.9349 11.4353 16.1621 11.6625C16.3893 11.8897 16.517 12.1979 16.517 12.5192V13.7308C16.517 13.945 16.6021 14.1504 16.7535 14.3019C16.905 14.4534 17.1105 14.5385 17.3247 14.5385C17.5389 14.5385 17.7443 14.4534 17.8958 14.3019C18.0473 14.1504 18.1324 13.945 18.1324 13.7308V12.5192C18.1324 11.7695 17.8345 11.0504 17.3044 10.5203C16.7742 9.99014 16.0552 9.69231 15.3054 9.69231C14.5557 9.69231 13.8367 9.99014 13.3065 10.5203C12.7764 11.0504 12.4785 11.7695 12.4785 12.5192V13.7308C12.4785 13.945 12.5636 14.1504 12.7151 14.3019C12.8666 14.4534 13.072 14.5385 13.2862 14.5385C13.5004 14.5385 13.7059 14.4534 13.8573 14.3019C14.0088 14.1504 14.0939 13.945 14.0939 13.7308V12.5192C14.0939 12.1979 14.2215 11.8897 14.4488 11.6625C14.676 11.4353 14.9841 11.3077 15.3054 11.3077Z" fill="white"/>
<path fill-rule="evenodd" clip-rule="evenodd" d="M10.5409 13.5288C10.0053 13.5288 9.49173 13.7416 9.11305 14.1203C8.73437 14.4989 8.52163 15.0125 8.52163 15.5481V16.7596C8.52163 16.9738 8.43654 17.1793 8.28507 17.3307C8.1336 17.4822 7.92816 17.5673 7.71394 17.5673C7.49973 17.5673 7.29429 17.4822 7.14282 17.3307C6.99135 17.1793 6.90625 16.9738 6.90625 16.7596V15.5481C6.90625 14.5841 7.28918 13.6596 7.9708 12.978C8.65243 12.2964 9.57691 11.9135 10.5409 11.9135C11.5048 11.9135 12.4293 12.2964 13.1109 12.978C13.7925 13.6596 14.1755 14.5841 14.1755 15.5481V16.7596C14.1755 16.9738 14.0904 17.1793 13.9389 17.3307C13.7874 17.4822 13.582 17.5673 13.3678 17.5673C13.1536 17.5673 12.9481 17.4822 12.7967 17.3307C12.6452 17.1793 12.5601 16.9738 12.5601 16.7596V15.5481C12.5601 15.0125 12.3474 14.4989 11.9687 14.1203C11.59 13.7416 11.0764 13.5288 10.5409 13.5288Z" fill="white"/>
<path fill-rule="evenodd" clip-rule="evenodd" d="M10.4992 11.3077C10.7135 11.3077 10.9189 11.2226 11.0704 11.0711C11.2218 10.9197 11.3069 10.7142 11.3069 10.5C11.3069 10.2858 11.2218 10.0803 11.0704 9.92888C10.9189 9.7774 10.7135 9.69231 10.4992 9.69231C10.285 9.69231 10.0796 9.7774 9.92812 9.92888C9.77665 10.0803 9.69156 10.2858 9.69156 10.5C9.69156 10.7142 9.77665 10.9197 9.92812 11.0711C10.0796 11.2226 10.285 11.3077 10.4992 11.3077ZM10.4992 12.9231C11.1419 12.9231 11.7582 12.6678 12.2126 12.2134C12.667 11.759 12.9223 11.1426 12.9223 10.5C12.9223 9.85736 12.667 9.24104 12.2126 8.78663C11.7582 8.33221 11.1419 8.07692 10.4992 8.07692C9.85661 8.07692 9.24029 8.33221 8.78587 8.78663C8.33146 9.24104 8.07617 9.85736 8.07617 10.5C8.07617 11.1426 8.33146 11.759 8.78587 12.2134C9.24029 12.6678 9.85661 12.9231 10.4992 12.9231Z" fill="white"/>
<path fill-rule="evenodd" clip-rule="evenodd" d="M10.5 19.3846C15.4067 19.3846 19.3846 15.4067 19.3846 10.5C19.3846 5.59327 15.4067 1.61538 10.5 1.61538C5.59327 1.61538 1.61538 5.59327 1.61538 10.5C1.61538 15.4067 5.59327 19.3846 10.5 19.3846ZM10.5 21C16.2992 21 21 16.2992 21 10.5C21 4.70077 16.2992 0 10.5 0C4.70077 0 0 4.70077 0 10.5C0 16.2992 4.70077 21 10.5 21Z" fill="white"/>
</g>
<defs>
<clipPath id="clip0_82_41">
<rect width="21" height="21" fill="white"/>
</clipPath>
</defs>
</svg>
