<svg width="21" height="22" viewBox="0 0 21 22" fill="none" xmlns="http://www.w3.org/2000/svg">
<path d="M10.5 12.75C10.6731 12.75 10.8422 12.6987 10.9861 12.6025C11.13 12.5064 11.2422 12.3697 11.3084 12.2098C11.3746 12.05 11.3919 11.874 11.3582 11.7043C11.3244 11.5346 11.2411 11.3787 11.1187 11.2563C10.9963 11.1339 10.8404 11.0506 10.6707 11.0168C10.501 10.9831 10.325 11.0004 10.1652 11.0666C10.0053 11.1328 9.86861 11.245 9.77246 11.3889C9.67632 11.5328 9.625 11.7019 9.625 11.875C9.625 12.1071 9.71719 12.3296 9.88128 12.4937C10.0454 12.6578 10.2679 12.75 10.5 12.75ZM14.875 12.75C15.0481 12.75 15.2172 12.6987 15.3611 12.6025C15.505 12.5064 15.6172 12.3697 15.6834 12.2098C15.7496 12.05 15.7669 11.874 15.7332 11.7043C15.6994 11.5346 15.6161 11.3787 15.4937 11.2563C15.3713 11.1339 15.2154 11.0506 15.0457 11.0168C14.876 10.9831 14.7 11.0004 14.5402 11.0666C14.3803 11.1328 14.2436 11.245 14.1475 11.3889C14.0513 11.5328 14 11.7019 14 11.875C14 12.1071 14.0922 12.3296 14.2563 12.4937C14.4204 12.6578 14.6429 12.75 14.875 12.75ZM10.5 16.25C10.6731 16.25 10.8422 16.1987 10.9861 16.1025C11.13 16.0064 11.2422 15.8697 11.3084 15.7098C11.3746 15.55 11.3919 15.374 11.3582 15.2043C11.3244 15.0346 11.2411 14.8787 11.1187 14.7563C10.9963 14.6339 10.8404 14.5506 10.6707 14.5168C10.501 14.4831 10.325 14.5004 10.1652 14.5666C10.0053 14.6328 9.86861 14.745 9.77246 14.8889C9.67632 15.0328 9.625 15.2019 9.625 15.375C9.625 15.6071 9.71719 15.8296 9.88128 15.9937C10.0454 16.1578 10.2679 16.25 10.5 16.25ZM14.875 16.25C15.0481 16.25 15.2172 16.1987 15.3611 16.1025C15.505 16.0064 15.6172 15.8697 15.6834 15.7098C15.7496 15.55 15.7669 15.374 15.7332 15.2043C15.6994 15.0346 15.6161 14.8787 15.4937 14.7563C15.3713 14.6339 15.2154 14.5506 15.0457 14.5168C14.876 14.4831 14.7 14.5004 14.5402 14.5666C14.3803 14.6328 14.2436 14.745 14.1475 14.8889C14.0513 15.0328 14 15.2019 14 15.375C14 15.6071 14.0922 15.8296 14.2563 15.9937C14.4204 16.1578 14.6429 16.25 14.875 16.25ZM6.125 12.75C6.29806 12.75 6.46723 12.6987 6.61112 12.6025C6.75502 12.5064 6.86717 12.3697 6.93339 12.2098C6.99962 12.05 7.01695 11.874 6.98319 11.7043C6.94943 11.5346 6.86609 11.3787 6.74372 11.2563C6.62135 11.1339 6.46544 11.0506 6.2957 11.0168C6.12597 10.9831 5.95004 11.0004 5.79015 11.0666C5.63027 11.1328 5.49361 11.245 5.39746 11.3889C5.30132 11.5328 5.25 11.7019 5.25 11.875C5.25 12.1071 5.34219 12.3296 5.50628 12.4937C5.67038 12.6578 5.89294 12.75 6.125 12.75ZM16.625 4H15.75V3.125C15.75 2.89294 15.6578 2.67038 15.4937 2.50628C15.3296 2.34219 15.1071 2.25 14.875 2.25C14.6429 2.25 14.4204 2.34219 14.2563 2.50628C14.0922 2.67038 14 2.89294 14 3.125V4H7V3.125C7 2.89294 6.90781 2.67038 6.74372 2.50628C6.57962 2.34219 6.35706 2.25 6.125 2.25C5.89294 2.25 5.67038 2.34219 5.50628 2.50628C5.34219 2.67038 5.25 2.89294 5.25 3.125V4H4.375C3.67881 4 3.01113 4.27656 2.51884 4.76884C2.02656 5.26113 1.75 5.92881 1.75 6.625V17.125C1.75 17.8212 2.02656 18.4889 2.51884 18.9812C3.01113 19.4734 3.67881 19.75 4.375 19.75H16.625C17.3212 19.75 17.9889 19.4734 18.4812 18.9812C18.9734 18.4889 19.25 17.8212 19.25 17.125V6.625C19.25 5.92881 18.9734 5.26113 18.4812 4.76884C17.9889 4.27656 17.3212 4 16.625 4ZM17.5 17.125C17.5 17.3571 17.4078 17.5796 17.2437 17.7437C17.0796 17.9078 16.8571 18 16.625 18H4.375C4.14294 18 3.92038 17.9078 3.75628 17.7437C3.59219 17.5796 3.5 17.3571 3.5 17.125V9.25H17.5V17.125ZM17.5 7.5H3.5V6.625C3.5 6.39294 3.59219 6.17038 3.75628 6.00628C3.92038 5.84219 4.14294 5.75 4.375 5.75H16.625C16.8571 5.75 17.0796 5.84219 17.2437 6.00628C17.4078 6.17038 17.5 6.39294 17.5 6.625V7.5ZM6.125 16.25C6.29806 16.25 6.46723 16.1987 6.61112 16.1025C6.75502 16.0064 6.86717 15.8697 6.93339 15.7098C6.99962 15.55 7.01695 15.374 6.98319 15.2043C6.94943 15.0346 6.86609 14.8787 6.74372 14.7563C6.62135 14.6339 6.46544 14.5506 6.2957 14.5168C6.12597 14.4831 5.95004 14.5004 5.79015 14.5666C5.63027 14.6328 5.49361 14.745 5.39746 14.8889C5.30132 15.0328 5.25 15.2019 5.25 15.375C5.25 15.6071 5.34219 15.8296 5.50628 15.9937C5.67038 16.1578 5.89294 16.25 6.125 16.25Z" fill="#A8A8A8"/>
</svg>
